<svg width="209" height="160" viewBox="0 0 209 160" fill="none" xmlns="http://www.w3.org/2000/svg">
<path d="M21.1623 34.3369C17.3298 36.7322 16.7709 41.3232 16.9705 43.3192H39.7258C34.4562 43.3192 25.1544 37.331 21.1623 34.3369Z" fill="#0A3386" stroke="#0A3386" stroke-width="4"/>
<path d="M17.0056 46.3129C16.8063 48.4421 17.3644 53.3391 21.1909 55.894C25.2439 51.2303 33.9854 45.9991 39.3 45.7253L39.7259 45.7141C39.5865 45.7141 39.4445 45.7179 39.3 45.7253L17.0056 46.3129Z" fill="#0A3386"/>
<path d="M39.3 45.7253C33.9854 45.9991 25.2439 51.2303 21.1909 55.894C17.3644 53.3391 16.8063 48.4421 17.0056 46.3129L39.3 45.7253ZM39.3 45.7253L39.7259 45.7141C39.5865 45.7141 39.4445 45.7179 39.3 45.7253Z" stroke="#0A3386" stroke-width="4"/>
<path d="M133.741 53.499C137.573 55.8943 138.132 60.4853 137.932 62.4813H115.177C120.447 62.4813 129.748 56.4931 133.741 53.499Z" fill="#0A3386" stroke="#0A3386" stroke-width="4"/>
<path d="M133.712 73.1885C137.538 70.6335 138.096 65.7365 137.897 63.6073H115.177C120.438 63.6073 129.549 68.3979 133.712 73.1885Z" fill="#0A3386" stroke="#0A3386" stroke-width="4"/>
<path d="M99.605 20.8469C97.2097 17.0144 92.6187 16.4555 90.6227 16.6551V39.4104C90.6227 34.1408 96.6109 24.839 99.605 20.8469Z" fill="#0A3386" stroke="#0A3386" stroke-width="4"/>
<path d="M87.6314 16.407C85.5023 16.2077 80.6053 16.7657 78.0503 20.5923C82.714 24.6453 87.9452 33.3868 88.219 38.7014L88.2302 39.1273C88.2302 38.9879 88.2265 38.8459 88.219 38.7014L87.6314 16.407Z" fill="#0A3386"/>
<path d="M88.219 38.7014C87.9452 33.3868 82.714 24.6453 78.0503 20.5923C80.6053 16.7657 85.5023 16.2077 87.6314 16.407L88.219 38.7014ZM88.219 38.7014L88.2302 39.1273C88.2302 38.9879 88.2265 38.8459 88.219 38.7014Z" stroke="#0A3386" stroke-width="4"/>
<path d="M110.983 137.334C112.979 137.534 117.57 136.975 119.965 133.142C117.037 129.238 110.676 120.829 110.396 115.532L110.387 115.178C110.387 115.294 110.39 115.412 110.396 115.532L110.983 137.334Z" fill="#0A3386"/>
<path d="M110.396 115.532C110.676 120.829 117.037 129.238 119.965 133.142C117.57 136.975 112.979 137.534 110.983 137.334L110.396 115.532ZM110.396 115.532L110.387 115.178C110.387 115.294 110.39 115.412 110.396 115.532Z" stroke="#0A3386" stroke-width="4"/>
<path d="M98.4102 133.397C100.965 137.224 105.862 137.782 107.991 137.582V115.178C107.991 120.439 103.201 129.234 98.4102 133.397Z" fill="#0A3386" stroke="#0A3386" stroke-width="4"/>
<path d="M104.171 62.4023H6.77776L0.802719 62.9005L6.77776 63.6477H104.171" stroke="#0A3386" stroke-width="4"/>
<path d="M114.757 62.4023H152.119V63.6477H114.757" stroke="#0A3386" stroke-width="4"/>
<path d="M88.2305 58.888V2H90.6257V58.888" stroke="#0A3386" stroke-width="4"/>
<path d="M88.2305 69.0679V153.502L89.4281 158.891L90.6257 153.502V69.0679" stroke="#0A3386" stroke-width="4"/>
<path d="M107.992 49.9062V157.694H110.387V49.9062" stroke="#0A3386" stroke-width="4"/>
<path d="M110.387 39.1269V7.38939L109.189 2L107.992 7.38939V39.1269" stroke="#0A3386" stroke-width="4"/>
<path d="M84.6371 43.3188H2V45.7141H84.6371" stroke="#0A3386" stroke-width="4"/>
<path d="M94.8174 43.3188H201.407L203.803 44.5165L201.407 45.7141H94.8174" stroke="#0A3386" stroke-width="4"/>
<path d="M3.57403 100H0.27858L5.29988 85.4545H9.26295L14.2772 100H10.9817L7.33824 88.7784H7.2246L3.57403 100ZM3.36807 94.2827H11.1522V96.6832H3.36807V94.2827ZM15.9711 100V89.0909H18.9043V90.9943H19.0179C19.2168 90.3172 19.5506 89.8059 20.0194 89.4602C20.4881 89.1098 21.0279 88.9347 21.6387 88.9347C21.7902 88.9347 21.9535 88.9441 22.1287 88.9631C22.3039 88.982 22.4578 89.008 22.5904 89.0412V91.7259C22.4483 91.6832 22.2518 91.6454 22.0009 91.6122C21.7499 91.5791 21.5203 91.5625 21.312 91.5625C20.8669 91.5625 20.4692 91.6596 20.1188 91.8537C19.7731 92.0431 19.4985 92.3082 19.2949 92.6491C19.0961 92.9901 18.9966 93.383 18.9966 93.8281V100H15.9711ZM28.5758 100.213C27.4584 100.213 26.4972 99.9763 25.6923 99.5028C24.8921 99.0246 24.2766 98.3617 23.8457 97.5142C23.4196 96.6667 23.2065 95.6913 23.2065 94.5881C23.2065 93.4706 23.4219 92.4905 23.8528 91.6477C24.2884 90.8002 24.9063 90.1397 25.7065 89.6662C26.5067 89.188 27.4584 88.9489 28.5616 88.9489C29.5133 88.9489 30.3467 89.1217 31.0616 89.4673C31.7766 89.813 32.3424 90.2983 32.7591 90.9233C33.1757 91.5483 33.4054 92.2822 33.448 93.125H30.5929C30.5124 92.5805 30.2993 92.1425 29.9537 91.8111C29.6127 91.4749 29.1653 91.3068 28.6113 91.3068C28.1426 91.3068 27.733 91.4347 27.3826 91.6903C27.037 91.9413 26.7671 92.3082 26.573 92.7912C26.3788 93.2741 26.2818 93.8589 26.2818 94.5455C26.2818 95.2415 26.3765 95.8333 26.5659 96.321C26.76 96.8087 27.0323 97.1804 27.3826 97.4361C27.733 97.6918 28.1426 97.8196 28.6113 97.8196C28.957 97.8196 29.2671 97.7486 29.5417 97.6065C29.8211 97.4645 30.0507 97.2585 30.2306 96.9886C30.4153 96.714 30.536 96.3849 30.5929 96.0014H33.448C33.4006 96.8348 33.1734 97.5687 32.7662 98.2031C32.3637 98.8329 31.8074 99.3253 31.0971 99.6804C30.3869 100.036 29.5465 100.213 28.5758 100.213ZM38.4107 93.6932V100H35.3851V85.4545H38.3255V91.0156H38.4533C38.6995 90.3717 39.0972 89.8674 39.6465 89.5028C40.1957 89.1335 40.8846 88.9489 41.7132 88.9489C42.4708 88.9489 43.1313 89.1146 43.6948 89.446C44.263 89.7727 44.7033 90.2438 45.0158 90.8594C45.333 91.4702 45.4893 92.2017 45.4846 93.054V100H42.459V93.5938C42.4637 92.9214 42.2933 92.3982 41.9476 92.0241C41.6067 91.6501 41.1285 91.4631 40.513 91.4631C40.101 91.4631 39.7364 91.5507 39.4192 91.7259C39.1067 91.901 38.8605 92.1567 38.6806 92.4929C38.5054 92.8243 38.4154 93.2244 38.4107 93.6932ZM52.8372 100.213C51.715 100.213 50.7491 99.9858 49.9395 99.5312C49.1345 99.072 48.5143 98.4233 48.0787 97.5852C47.6431 96.7424 47.4252 95.7457 47.4252 94.5952C47.4252 93.473 47.6431 92.4882 48.0787 91.6406C48.5143 90.7931 49.1274 90.1326 49.9181 89.6591C50.7136 89.1856 51.6464 88.9489 52.7164 88.9489C53.4361 88.9489 54.1061 89.0649 54.7264 89.2969C55.3514 89.5241 55.8959 89.8674 56.3599 90.3267C56.8287 90.786 57.1932 91.3636 57.4537 92.0597C57.7141 92.7509 57.8443 93.5606 57.8443 94.4886V95.3196H48.6326V93.4446H54.9963C54.9963 93.009 54.9016 92.6231 54.7122 92.2869C54.5228 91.9508 54.26 91.688 53.9238 91.4986C53.5924 91.3045 53.2065 91.2074 52.7662 91.2074C52.3069 91.2074 51.8997 91.3139 51.5446 91.527C51.1942 91.7353 50.9196 92.017 50.7207 92.3722C50.5218 92.7225 50.42 93.1132 50.4153 93.544V95.3267C50.4153 95.8665 50.5147 96.3329 50.7136 96.7259C50.9172 97.1188 51.2037 97.4219 51.573 97.6349C51.9423 97.848 52.3803 97.9545 52.8869 97.9545C53.2231 97.9545 53.5308 97.9072 53.8102 97.8125C54.0895 97.7178 54.3287 97.5758 54.5275 97.3864C54.7264 97.197 54.8779 96.965 54.9821 96.6903L57.7804 96.875C57.6383 97.5473 57.3471 98.1345 56.9068 98.6364C56.4712 99.1335 55.9077 99.5218 55.2164 99.8011C54.5299 100.076 53.7368 100.213 52.8372 100.213ZM59.8187 100V89.0909H62.752V90.9943H62.8656C63.0645 90.3172 63.3983 89.8059 63.867 89.4602C64.3358 89.1098 64.8755 88.9347 65.4863 88.9347C65.6378 88.9347 65.8012 88.9441 65.9764 88.9631C66.1516 88.982 66.3055 89.008 66.438 89.0412V91.7259C66.296 91.6832 66.0995 91.6454 65.8485 91.6122C65.5976 91.5791 65.368 91.5625 65.1596 91.5625C64.7145 91.5625 64.3168 91.6596 63.9664 91.8537C63.6208 92.0431 63.3462 92.3082 63.1426 92.6491C62.9437 92.9901 62.8443 93.383 62.8443 93.8281V100H59.8187ZM70.2022 104.091C69.8187 104.091 69.4589 104.06 69.1227 103.999C68.7913 103.942 68.5166 103.868 68.2988 103.778L68.9806 101.52C69.3358 101.629 69.6554 101.688 69.9395 101.697C70.2283 101.707 70.4769 101.641 70.6852 101.499C70.8983 101.357 71.0711 101.115 71.2037 100.774L71.3812 100.312L67.4679 89.0909H70.6497L72.9082 97.1023H73.0218L75.3017 89.0909H78.5048L74.2647 101.179C74.0611 101.766 73.7842 102.277 73.4338 102.713C73.0881 103.153 72.6502 103.492 72.1199 103.729C71.5895 103.97 70.9503 104.091 70.2022 104.091Z" fill="#0A3386"/>
<path d="M17.7377 112.545H23.1195V129.076C23.1195 130.932 22.6762 132.556 21.7896 133.948C20.9113 135.34 19.6808 136.426 18.0982 137.205C16.5156 137.975 14.6719 138.36 12.5673 138.36C10.4544 138.36 8.60658 137.975 7.02396 137.205C5.44134 136.426 4.21087 135.34 3.33255 133.948C2.45424 132.556 2.01508 130.932 2.01508 129.076V112.545H7.39683V128.616C7.39683 129.586 7.60812 130.447 8.03071 131.201C8.46158 131.955 9.06646 132.548 9.84534 132.979C10.6242 133.41 11.5315 133.625 12.5673 133.625C13.6113 133.625 14.5186 133.41 15.2892 132.979C16.0681 132.548 16.6689 131.955 17.0914 131.201C17.5223 130.447 17.7377 129.586 17.7377 128.616V112.545ZM50.0065 121.457H44.5626C44.4632 120.753 44.2602 120.127 43.9536 119.58C43.647 119.025 43.2534 118.553 42.7728 118.163C42.2922 117.774 41.7371 117.476 41.1073 117.268C40.4859 117.061 39.8106 116.958 39.0814 116.958C37.7639 116.958 36.6163 117.285 35.6386 117.94C34.6608 118.586 33.9027 119.531 33.3641 120.773C32.8255 122.008 32.5562 123.508 32.5562 125.273C32.5562 127.087 32.8255 128.612 33.3641 129.847C33.911 131.081 34.6733 132.013 35.651 132.643C36.6288 133.273 37.7598 133.588 39.0441 133.588C39.765 133.588 40.432 133.492 41.0452 133.302C41.6666 133.111 42.2177 132.834 42.6982 132.469C43.1788 132.096 43.5766 131.645 43.8914 131.114C44.2146 130.584 44.4383 129.979 44.5626 129.3L50.0065 129.325C49.8656 130.493 49.5135 131.62 48.95 132.705C48.3949 133.782 47.645 134.748 46.7004 135.601C45.7641 136.446 44.6454 137.118 43.3445 137.615C42.0519 138.104 40.5895 138.348 38.9571 138.348C36.6868 138.348 34.6567 137.834 32.8669 136.807C31.0854 135.779 29.6768 134.292 28.6411 132.345C27.6136 130.398 27.0999 128.04 27.0999 125.273C27.0999 122.497 27.6219 120.135 28.6659 118.188C29.71 116.241 31.1269 114.758 32.9166 113.739C34.7064 112.711 36.7199 112.197 38.9571 112.197C40.432 112.197 41.7992 112.405 43.0587 112.819C44.3264 113.233 45.4492 113.838 46.4269 114.634C47.4047 115.421 48.2001 116.386 48.8133 117.529C49.4347 118.673 49.8325 119.982 50.0065 121.457ZM53.8657 138V112.545H63.9083C65.8306 112.545 67.4713 112.889 68.8302 113.577C70.1974 114.257 71.2372 115.222 71.9498 116.473C72.6707 117.716 73.0312 119.178 73.0312 120.86C73.0312 122.551 72.6666 124.005 71.9374 125.223C71.2082 126.433 70.1518 127.361 68.768 128.007C67.3925 128.653 65.7271 128.977 63.7716 128.977H57.0475V124.651H62.9015C63.929 124.651 64.7825 124.51 65.4619 124.229C66.1414 123.947 66.6468 123.524 66.9782 122.961C67.318 122.397 67.4878 121.697 67.4878 120.86C67.4878 120.015 67.318 119.303 66.9782 118.723C66.6468 118.143 66.1372 117.703 65.4495 117.405C64.77 117.099 63.9124 116.945 62.8767 116.945H59.2474V138H53.8657ZM67.6121 126.416L73.9385 138H67.9974L61.8078 126.416H67.6121Z" fill="#0A3386"/>
</svg>
