<svg width="404" height="512" viewBox="0 0 404 512" fill="none" xmlns="http://www.w3.org/2000/svg">
<g filter="url(#filter0_f_2005_485)">
<path d="M399.02 86.0009C397.049 86.0009 396.884 87.6461 397.049 88.4687C397.049 89.4559 397.64 91.5289 400.006 91.9237C402.372 92.3186 402.964 91.1011 402.964 90.443C403.358 86.8893 400.499 86.0009 399.02 86.0009Z" fill="white"/>
</g>
<path d="M71.1171 389.569C72.0274 383.423 73.549 377.342 76.92 371.392C77.1993 370.9 76.549 370.316 76.1007 370.664L39.4858 399.084C39.355 399.185 39.283 399.35 39.2956 399.515C40.2103 411.428 50.809 411.887 55.9128 408.731C58.4338 407.172 66.8492 401.538 71.0934 389.663C71.1044 389.633 71.1124 389.601 71.1171 389.569Z" fill="#F2CF51"/>
<path d="M398.896 89.9763L21.2823 416.144" stroke="black" stroke-width="5" stroke-linecap="round"/>
<path d="M12.5615 415.53L25.9721 405.505L27.0173 404.649C27.2169 404.485 27.5116 404.5 27.6961 404.685L35.0147 411.99C35.2293 412.204 35.2066 412.554 34.9664 412.735L20.1242 423.903C19.6979 424.224 19.1913 424.425 18.657 424.486L13.8858 425.029C11.8289 425.263 10.1305 423.422 10.5579 421.421L11.4445 417.271C11.5931 416.575 11.9894 415.957 12.5615 415.53Z" fill="#335DB1"/>
<path d="M51.4169 369.956C58.8426 370.661 71.3519 366.899 78.7718 364.433C79.2995 364.258 79.6916 364.943 79.267 365.297L40.5302 397.611C40.392 397.726 40.1966 397.757 40.0265 397.692C29.7443 393.765 27.9339 387.954 31.4105 379.836C31.4213 379.811 31.4345 379.786 31.4494 379.763C35.4349 373.612 40.8294 368.952 51.4169 369.956Z" fill="#F2CF51"/>
<defs>
<filter id="filter0_f_2005_485" x="396" y="85.0009" width="8" height="8" filterUnits="userSpaceOnUse" color-interpolation-filters="sRGB">
<feFlood flood-opacity="0" result="BackgroundImageFix"/>
<feBlend mode="normal" in="SourceGraphic" in2="BackgroundImageFix" result="shape"/>
<feGaussianBlur stdDeviation="0.5" result="effect1_foregroundBlur_2005_485"/>
</filter>
</defs>
</svg>
