<svg width="338" height="510" viewBox="0 0 338 510" fill="none" xmlns="http://www.w3.org/2000/svg">
<path d="M63.5716 404.788C63.5516 398.712 64.1222 392.603 66.4646 386.332C66.6634 385.8 65.9263 385.321 65.5393 385.737L34.5894 419.006C34.4781 419.125 34.4331 419.297 34.4695 419.457C37.0817 430.866 47.3224 429.64 51.7627 425.774C53.9561 423.864 61.2155 417.072 63.5626 404.884C63.5686 404.853 63.5717 404.82 63.5716 404.788Z" fill="#F2CF51"/>
<path d="M334.666 62.56L19.5955 438.491" stroke="black" stroke-width="5" stroke-linecap="round"/>
<path d="M11.1474 439.189L22.5489 427.366L23.4221 426.376C23.5932 426.182 23.8841 426.151 24.0927 426.304L32.1607 432.22C32.4044 432.399 32.4351 432.751 32.226 432.969L19.6204 446.124C19.2517 446.509 18.7872 446.788 18.2745 446.934L13.888 448.181C11.9008 448.746 9.9507 447.18 10.0732 445.117L10.3121 441.093C10.3545 440.379 10.6508 439.704 11.1474 439.189Z" fill="#335DB1"/>
<path d="M41.8055 388.871C49.0145 388.385 60.4281 382.797 67.2007 379.233C67.6924 378.974 68.1819 379.594 67.8178 380.013L35.3801 417.409C35.2622 417.545 35.0759 417.606 34.8998 417.569C24.4623 415.382 21.8799 410.031 24.0358 401.61C24.0427 401.584 24.0519 401.557 24.0631 401.532C26.9944 394.937 31.4954 389.566 41.8055 388.871Z" fill="#F2CF51"/>
</svg>
